<svg width="24" height="24" viewBox="0 0 24 24" xmlns="http://www.w3.org/2000/svg">
  <!-- Simplified icon for VS Code Activity Bar -->
  <g fill="#C5C5C5">
    <!-- Clipboard shape -->
    <path d="M19 3h-4.18C14.4 1.84 13.3 1 12 1c-1.3 0-2.4.84-2.82 2H5c-1.1 0-2 .9-2 2v14c0 1.1.9 2 2 2h14c1.1 0 2-.9 2-2V5c0-1.1-.9-2-2-2zm-7 0c.55 0 1 .45 1 1s-.45 1-1 1-1-.45-1-1 .45-1 1-1zm7 16H5V5h2v3h10V5h2v14z"/>
    
    <!-- Check marks -->
    <path d="M7 11.5l1.5 1.5 3-3" stroke="currentColor" stroke-width="1.5" stroke-linecap="round" stroke-linejoin="round" fill="none"/>
    <rect x="13" y="11" width="5" height="1" rx="0.5"/>
    <rect x="7" y="15" width="11" height="1" rx="0.5"/>
  </g>
</svg>